# xmcd
#
# Track frame offsets:
#	150
#	21534
#	43590
#	100565
#	112004
#	138243
#	159694
#
# Disc length: 2607 seconds
#
# Revision: 1
# Processed by: cddbd v1.5.2PL0 Copyright (c) Steve Scherf et al.
# Submitted via: audiograbber 1.83.01
#
DISCID=580a2d07
DTITLE=Grateful Dead - 69-12-13 Swing Auditorium, San Bernardino CA
DYEAR=1900
DGENRE=
TTITLE0=Casey Jones
TTITLE1=Hard To Handle
TTITLE2=Black Peter
TTITLE3=Mama Tried
TTITLE4=China Cat Sunflower
TTITLE5=I Know You Rider
TTITLE6=High Time
EXTD=
EXTT0=
EXTT1=
EXTT2=
EXTT3=
EXTT4=
EXTT5=
EXTT6=
PLAYORDER=
